<svg xmlns="http://www.w3.org/2000/svg" version="1.1" xmlns:xlink="http://www.w3.org/1999/xlink" xmlns:svgjs="http://svgjs.dev/svgjs" width="100%" height="100%" viewBox="0 0 1000 600"><rect width="1000" height="600" x="0" y="0" fill="#a3c2de"/><g><circle r="166.66666666666666" cx="298.36355082194007" cy="320.58580855714524" fill="#ffffff" transform="matrix(0.9491490023353331,0,0,0.9491490023353331,0,-4.283704288077558)"/><path d="M353.8734236684136 395.58580263094166L334.6300030450675 395.58580263094166L273.93921492528375 294.1329540169762L262.3986450072942 265.62418272313016L261.795574845309 265.7064195634009L265.5510572176714 296.90159430609015L265.5510572176714 395.58580263094166L245.81421555270106 395.58580263094166L245.81421555270106 268.28317389188317L242.85368930295553 247.5594901436643L266.1541273796566 245.58580597716727L326.92715233971103 347.532075632757L338.76925733869325 378.5079521347243L339.3723275006784 378.42571529445354L334.6300030450675 345.2568563852674L334.6300030450675 247.5594901436643L353.8734236684136 245.58580597716727L353.8734236684136 395.58580263094166Z " fill="#565363" transform="matrix(0.9491490023353331,0,0,0.9491490023353331,0,-4.283704288077558)"/><path d="M631.9031570673422 358.45709038291L617.4229592906099 358.45709038291L571.7546432255308 282.11633258848485L563.0706499719635 260.66418773406656L562.6168546000431 260.7260689211465L565.4427621433655 284.19966588684656L565.4427621433655 358.45709038291L550.5912772441528 358.45709038291L550.5912772441528 262.66501278298824L548.3635545092709 247.0709536388149L565.8965575152858 245.58580514889363L611.6267547674449 322.29785006579914L620.5376457069725 345.606430532619L620.9914410788929 345.54454934553894L617.4229592906099 320.58580388991766L617.4229592906099 247.0709536388149L631.9031570673422 245.58580514889363L631.9031570673422 358.45709038291ZM676.0863246425 278.6303590496418L676.0863246425 358.45709038291L661.9774139882479 358.45709038291L661.9774139882479 280.11550753956317L676.0863246425 278.6303590496418ZM661.5236186163276 261.92243853802756L661.5236186163276 247.0709536388149L676.5401200144204 247.0709536388149L676.5401200144204 261.92243853802756L661.5236186163276 261.92243853802756ZM720.640779340138 297.05032573713754L720.640779340138 346.5759024635398L732.8107461325484 346.5759024635398Q739.6589308360742 346.5759024635398 744.6713069895585 344.3069256039379Q749.6836831430428 342.03794874433595 752.9015048712055 337.95379039705244Q756.1399536617283 333.86963204976894 757.6869833387296 328.1559357760441Q759.2546400780909 322.44223950231924 759.2546400780909 315.53217361171335L759.2546400780909 315.53217361171335Q759.2546400780909 308.2508205986271 757.8519998376098 302.9496655721026Q756.4287325347685 297.6485105455781 753.9741121139265 294.18316406909514Q751.5401187554444 290.7384446549722 748.3016699649216 289.06765260381076Q745.0632211743988 287.3968605526493 741.4328581990358 287.3968605526493L741.4328581990358 287.3968605526493Q737.8024952236726 287.3968605526493 734.6465546825899 288.3250783588501Q731.4906141415073 289.25329616505087 728.850350159425 290.6559364055321Q726.2100861773428 292.07920370837337 724.1267528789809 293.7706228218948Q722.0434195806191 295.4826689977763 720.640779340138 297.05032573713754L720.640779340138 297.05032573713754ZM720.640779340138 395.58580263094166L706.5318686858859 395.58580263094166L706.5318686858859 276.7739234372402L720.640779340138 275.288774947319L720.640779340138 288.3663324835702L727.695234667264 278.9191379226821Q729.8404491527059 277.660887118721 733.8214721881892 276.5882798760001Q737.8024952236726 275.5156726332792 743.5780726844775 275.5156726332792L743.5780726844775 275.5156726332792Q749.7455643301229 275.5156726332792 755.1704817308075 278.4034613636817Q760.5953991314922 281.3118771564441 764.6383033540556 286.6542863076887Q768.681207576619 291.99669545893323 771.032692685661 299.56682734505966Q773.363550732343 307.1369592311862 773.363550732343 316.50164554263415L773.363550732343 316.50164554263415Q773.363550732343 325.63943416812197 770.3932537525005 333.3127013660485Q767.4229567726579 341.00659562633507 761.9567852472533 346.61715658825983Q756.5112407842086 352.2277175501847 748.755465336842 355.3424039665473Q740.9790628271154 358.45709038291 731.4081058920672 358.45709038291L731.4081058920672 358.45709038291L720.640779340138 358.45709038291L720.640779340138 395.58580263094166ZM830.6242758437519 288.0569265481698L830.6242758437519 288.0569265481698Q827.6539788639094 288.0569265481698 824.7455630711469 289.25329616505087Q821.8577743407444 290.42903871957196 819.1762562339421 292.4504908308536Q816.5153651894999 294.4513158797754 814.1226259557378 297.1122069242176Q811.7505137843358 299.7937250310199 809.749688735414 302.7640220108624L809.749688735414 302.7640220108624L809.749688735414 358.45709038291L795.640778081162 358.45709038291L795.640778081162 276.7739234372402L809.749688735414 275.288774947319L809.749688735414 291.99669545893323L817.1754311850203 279.00164617212215Q818.1449031159412 278.4034613636817 819.5887974811425 277.78464949288116Q821.0326918463437 277.14521055972057 822.8891274587453 276.67078812544014Q824.7455630711469 276.17573862879976 826.8701504942286 275.84570563103944Q828.9741108549505 275.5156726332792 831.2018335898324 275.5156726332792L831.2018335898324 275.5156726332792Q834.5434176921552 275.5156726332792 836.8123945517572 276.1138574417197Q839.0813714113591 276.6914151878002 840.1952327788 277.2277188091606L840.1952327788 277.2277188091606L839.4526585338394 289.5420750380912Q838.3387971663984 289.17078791561084 836.1110744315166 288.6138572318904Q833.8833516966346 288.0569265481698 830.6242758437519 288.0569265481698ZM884.667179226998 359.715341186871L884.667179226998 359.715341186871Q876.436981345351 359.715341186871 869.6300507665452 356.4975194587083Q862.8437472500995 353.2590706681856 857.9345064084151 347.58662851918075Q853.0458926290911 341.89355930781585 850.3231203975687 334.1377838604492Q847.6209752284063 326.38200841308264 847.6209752284063 317.38860922411493L847.6209752284063 317.38860922411493Q847.6209752284063 308.4158370975073 850.2199850857686 300.7219428372207Q852.8189949431309 293.0280485769341 857.6457275353749 287.4381146773694Q862.4724601276191 281.82755371544454 869.341271893505 278.6716131743618Q876.2100836593908 275.5156726332792 884.667179226998 275.5156726332792L884.667179226998 275.5156726332792Q892.918004171005 275.5156726332792 899.7455618121709 278.6716131743618Q906.5731194533367 281.82755371544454 911.482360295021 287.4381146773694Q916.391601136705 293.0280485769341 919.1350004305874 300.7219428372207Q921.8783997244698 308.4158370975073 921.8783997244698 317.38860922411493L921.8783997244698 317.38860922411493Q921.8783997244698 326.38200841308264 919.2381357423875 334.1377838604492Q916.5978717603053 341.89355930781585 911.7711391680612 347.58662851918075Q906.9444065758171 353.2590706681856 900.0549677475711 356.4975194587083Q893.1449018569652 359.715341186871 884.667179226998 359.715341186871ZM907.7694890702178 319.3894342730366L907.7694890702178 319.3894342730366Q907.7694890702178 313.38695912627156 906.4699841415367 307.5907546031066Q905.1704792128555 301.7945500799416 902.3445716695331 297.23596929837777Q899.5186641262106 292.6567614544538 895.0632186564468 289.85148097349145Q890.6077731866832 287.02557343016895 884.3784003539578 287.02557343016895L884.3784003539578 287.02557343016895Q878.4378063942727 287.02557343016895 874.126750361029 289.4801938510111Q869.8156943277853 291.9141872094932 867.0722950339031 295.9983455567767Q864.3288957400207 300.0825039040601 863.0293908113396 305.2805236187846Q861.7298858826584 310.47854333350904 861.7298858826584 315.9859689836337L861.7298858826584 315.9859689836337Q861.7298858826584 321.9884441303989 863.0293908113396 327.78464865356375Q864.3288957400207 333.58085317672874 867.113549158623 338.1188068959326Q869.8982025772254 342.6361335527765 874.3123939222692 345.4207869713789Q878.726585267313 348.2054403899813 884.9765851623982 348.2054403899813L884.9765851623982 348.2054403899813Q890.8346708726433 348.2054403899813 895.145726905887 345.7508199691391Q899.4567829391307 343.316826610657 902.282690482453 339.2532953257336Q905.0879709634154 335.2103911031702 906.4287300168166 330.0123713884457Q907.7694890702178 324.81435167372126 907.7694890702178 319.3894342730366Z " fill="#565363" transform="matrix(0.9491490023353331,0,0,0.9491490023353331,0,-4.283704288077558)"/></g></svg>